<svg xmlns="http://www.w3.org/2000/svg" xmlns:xlink="http://www.w3.org/1999/xlink" width="93" height="93" viewBox="0 0 93 93"><defs><clipPath id="a"><path d="M0-682.665H53.335v53.335H0Z" transform="translate(0 682.665)"/></clipPath></defs><g transform="translate(-2118 7445.641)"><circle cx="46.5" cy="46.5" r="46.5" transform="translate(2118 -7445.641)" fill="#d3e9f1"/><g transform="translate(2137.833 -6742.017)"><g transform="translate(0 -682.665)"><g clip-path="url(#a)"><g transform="translate(1.042 1.042)"><path d="M-38.4-449.951a25.51,25.51,0,0,1-3.254-12.507,25.626,25.626,0,0,1,25.626-25.626,25.817,25.817,0,0,1,3.981.307" transform="translate(41.652 488.084)" fill="none" stroke="#2d5644" stroke-linecap="round" stroke-linejoin="round" stroke-miterlimit="10" stroke-width="2"/></g><g transform="translate(12.744 48.185)"><path d="M-326.569-1.289a25.506,25.506,0,0,1-13.753,4A25.506,25.506,0,0,1-354.246-1.4" transform="translate(354.246 1.399)" fill="none" stroke="#2d5644" stroke-linecap="round" stroke-linejoin="round" stroke-miterlimit="10" stroke-width="2"/></g><g transform="translate(47.259 23.281)"><path d="M-56.788,0a25.861,25.861,0,0,1,.222,3.387A25.512,25.512,0,0,1-61.6,18.644" transform="translate(61.601)" fill="none" stroke="#2d5644" stroke-linecap="round" stroke-linejoin="round" stroke-miterlimit="10" stroke-width="2"/></g><g transform="translate(1.042 26.53)"><path d="M-4.262-208.327,5.162-224.65a2.666,2.666,0,0,1,4.618,0L19.2-208.327a2.666,2.666,0,0,1-2.309,4H-1.953A2.666,2.666,0,0,1-4.262-208.327Z" transform="translate(4.623 225.983)" fill="none" stroke="#2d5644" stroke-linecap="round" stroke-linejoin="round" stroke-miterlimit="10" stroke-width="2"/></g><g transform="translate(12.882 34.012)"><path d="M0,0V5.006" transform="translate(0)" fill="none" stroke="#2d5644" stroke-linecap="round" stroke-linejoin="round" stroke-miterlimit="10" stroke-width="2"/></g><g transform="translate(12.882 43.601)"><path d="M0,0H0" transform="translate(0)" fill="none" stroke="#2d5644" stroke-linecap="round" stroke-linejoin="round" stroke-miterlimit="10" stroke-width="2"/></g><g transform="translate(34.344 4.737)"><path d="M-168.19-84.094a7.127,7.127,0,0,0-7.127-7.127,7.127,7.127,0,0,0-7.127,7.127,7.127,7.127,0,0,0,7.127,7.127A7.127,7.127,0,0,0-168.19-84.094Z" transform="translate(182.444 91.221)" fill="none" stroke="#2d5644" stroke-linecap="round" stroke-linejoin="round" stroke-miterlimit="10" stroke-width="2"/></g><g transform="translate(41.471 1.042)"><path d="M0-43.6v-3.7" transform="translate(0 47.3)" fill="none" stroke="#2d5644" stroke-linecap="round" stroke-linejoin="round" stroke-miterlimit="10" stroke-width="2"/></g><g transform="translate(48.598 11.864)"><path d="M0,0H3.7" transform="translate(0 0)" fill="none" stroke="#2d5644" stroke-linecap="round" stroke-linejoin="round" stroke-miterlimit="10" stroke-width="2"/></g><g transform="translate(46.51 2.434)"><path d="M0-51.8l4.39-4.39" transform="translate(0 56.193)" fill="none" stroke="#2d5644" stroke-linecap="round" stroke-linejoin="round" stroke-miterlimit="10" stroke-width="2"/></g><g transform="translate(34.456 16.904)"><path d="M-23.307,0l-1.975,1.975" transform="translate(25.283)" fill="none" stroke="#2d5644" stroke-linecap="round" stroke-linejoin="round" stroke-miterlimit="10" stroke-width="2"/></g><g transform="translate(46.51 16.904)"><path d="M0,0,1.863,1.863" fill="none" stroke="#2d5644" stroke-linecap="round" stroke-linejoin="round" stroke-miterlimit="10" stroke-width="2"/></g><g transform="translate(34.344 4.737)"><path d="M-24.631-24.631l-2.087-2.087" transform="translate(26.719 26.719)" fill="none" stroke="#2d5644" stroke-linecap="round" stroke-linejoin="round" stroke-miterlimit="10" stroke-width="2"/></g><g transform="translate(40.661 9.468)"><path d="M0,0H0" transform="translate(0 0)" fill="none" stroke="#2d5644" stroke-linecap="round" stroke-linejoin="round" stroke-miterlimit="10" stroke-width="2"/></g><g transform="translate(44.151 12.229)"><path d="M0,0H0" transform="translate(0 0)" fill="none" stroke="#2d5644" stroke-linecap="round" stroke-linejoin="round" stroke-miterlimit="10" stroke-width="2"/></g><g transform="translate(39.88 14.156)"><path d="M0,0H0" transform="translate(0 0)" fill="none" stroke="#2d5644" stroke-linecap="round" stroke-linejoin="round" stroke-miterlimit="10" stroke-width="2"/></g><g transform="translate(27.784 23.344)"><path d="M-66.8-245.563v-2.807a3.578,3.578,0,0,0-2.131-3.272h0a5.927,5.927,0,0,1-3.53-5.42h0a5.927,5.927,0,0,1,3.374-5.349,2.35,2.35,0,0,0,1.338-2.121,1.84,1.84,0,0,1,2.381-1.759l10.541,3.241" transform="translate(72.458 266.375)" fill="none" stroke="#2d5644" stroke-linecap="round" stroke-linejoin="round" stroke-miterlimit="10" stroke-width="2"/></g><g transform="translate(29.688 11.864)"><path d="M-54.934,0h-4.656" transform="translate(59.589 0)" fill="none" stroke="#2d5644" stroke-linecap="round" stroke-linejoin="round" stroke-miterlimit="10" stroke-width="2"/></g><g transform="translate(40.199 18.991)"><path d="M-6.216,0l-.527,5.45" transform="translate(6.743)" fill="none" stroke="#2d5644" stroke-linecap="round" stroke-linejoin="round" stroke-miterlimit="10" stroke-width="2"/></g><g transform="translate(25.224 18.659)"><path d="M-217.14,0a18.679,18.679,0,0,1,1.792,8.009A18.751,18.751,0,0,1-234.1,26.759q-.728,0-1.443-.055" transform="translate(235.542)" fill="none" stroke="#2d5644" stroke-linecap="round" stroke-linejoin="round" stroke-miterlimit="10" stroke-width="2"/></g><g transform="translate(7.917 7.917)"><path d="M-8.1-280.784a18.769,18.769,0,0,1-.687-5.046A18.751,18.751,0,0,1,9.961-304.581a18.678,18.678,0,0,1,8.009,1.792" transform="translate(8.789 304.581)" fill="none" stroke="#2d5644" stroke-linecap="round" stroke-linejoin="round" stroke-miterlimit="10" stroke-width="2"/></g><g transform="translate(17.396 8.226)"><path d="M-85.1,0V5.032A4.653,4.653,0,0,1-87.427,9.06a4.5,4.5,0,0,0-2.249,3.9,4.279,4.279,0,0,0,.877,2.6,4.279,4.279,0,0,1-.844,6.025,10.354,10.354,0,0,1-2.673,1.439" transform="translate(92.316)" fill="none" stroke="#2d5644" stroke-linecap="round" stroke-linejoin="round" stroke-miterlimit="10" stroke-width="2"/></g><g transform="translate(44.135 45.418)"><path d="M0,0H0" transform="translate(0 0)" fill="none" stroke="#2d5644" stroke-linecap="round" stroke-linejoin="round" stroke-miterlimit="10" stroke-width="2"/></g></g></g></g></g></svg>